<mxfile host="Electron" agent="Mozilla/5.0 (Windows NT 10.0; Win64; x64) AppleWebKit/537.36 (KHTML, like Gecko) draw.io/27.0.5 Chrome/134.0.6998.205 Electron/35.3.0 Safari/537.36" version="27.0.5">
  <diagram name="Page-1" id="MTEK0pe2jfLJGJK4j2bK">
    <mxGraphModel dx="396" dy="236" grid="1" gridSize="10" guides="1" tooltips="1" connect="1" arrows="1" fold="1" page="1" pageScale="1" pageWidth="827" pageHeight="1169" math="1" shadow="0">
      <root>
        <mxCell id="0" />
        <mxCell id="1" parent="0" />
        <mxCell id="kHjPvmH0s1GJWHDaoqwj-1" value="$$\texttt{Object} \text{ methods}$$" style="rounded=0;whiteSpace=wrap;html=1;" parent="1" vertex="1">
          <mxGeometry x="160" y="90" width="280" height="30" as="geometry" />
        </mxCell>
        <mxCell id="kHjPvmH0s1GJWHDaoqwj-4" value="$$\texttt{Object} \text{ methods}$$" style="rounded=0;whiteSpace=wrap;html=1;" parent="1" vertex="1">
          <mxGeometry x="160" y="290" width="280" height="30" as="geometry" />
        </mxCell>
        <mxCell id="kHjPvmH0s1GJWHDaoqwj-5" value="$$\texttt{Object} \text{ methods}$$" style="rounded=0;whiteSpace=wrap;html=1;" parent="1" vertex="1">
          <mxGeometry x="160" y="190" width="280" height="30" as="geometry" />
        </mxCell>
        <mxCell id="kHjPvmH0s1GJWHDaoqwj-6" value="" style="rounded=0;whiteSpace=wrap;html=1;" parent="1" vertex="1">
          <mxGeometry x="440" y="90" width="30" height="30" as="geometry" />
        </mxCell>
        <mxCell id="kHjPvmH0s1GJWHDaoqwj-7" value="" style="endArrow=none;html=1;rounded=0;exitX=0;exitY=1;exitDx=0;exitDy=0;entryX=1;entryY=0;entryDx=0;entryDy=0;" parent="1" source="kHjPvmH0s1GJWHDaoqwj-6" target="kHjPvmH0s1GJWHDaoqwj-6" edge="1">
          <mxGeometry width="50" height="50" relative="1" as="geometry">
            <mxPoint x="490" y="130" as="sourcePoint" />
            <mxPoint x="540" y="80" as="targetPoint" />
          </mxGeometry>
        </mxCell>
        <mxCell id="kHjPvmH0s1GJWHDaoqwj-8" value="" style="rounded=0;whiteSpace=wrap;html=1;" parent="1" vertex="1">
          <mxGeometry x="470" y="90" width="30" height="30" as="geometry" />
        </mxCell>
        <mxCell id="kHjPvmH0s1GJWHDaoqwj-9" value="" style="rounded=0;whiteSpace=wrap;html=1;" parent="1" vertex="1">
          <mxGeometry x="440" y="190" width="30" height="30" as="geometry" />
        </mxCell>
        <mxCell id="kHjPvmH0s1GJWHDaoqwj-10" value="" style="rounded=0;whiteSpace=wrap;html=1;" parent="1" vertex="1">
          <mxGeometry x="470" y="190" width="30" height="30" as="geometry" />
        </mxCell>
        <mxCell id="kHjPvmH0s1GJWHDaoqwj-12" value="" style="rounded=0;whiteSpace=wrap;html=1;" parent="1" vertex="1">
          <mxGeometry x="440" y="290" width="30" height="30" as="geometry" />
        </mxCell>
        <mxCell id="kHjPvmH0s1GJWHDaoqwj-13" value="" style="rounded=0;whiteSpace=wrap;html=1;" parent="1" vertex="1">
          <mxGeometry x="470" y="290" width="30" height="30" as="geometry" />
        </mxCell>
        <mxCell id="kHjPvmH0s1GJWHDaoqwj-14" value="" style="endArrow=classic;html=1;rounded=0;fillColor=#008a00;strokeColor=#005700;" parent="1" edge="1">
          <mxGeometry width="50" height="50" relative="1" as="geometry">
            <mxPoint x="484.76" y="100" as="sourcePoint" />
            <mxPoint x="484.76" y="70" as="targetPoint" />
          </mxGeometry>
        </mxCell>
        <mxCell id="kHjPvmH0s1GJWHDaoqwj-15" value="run()" style="text;html=1;align=center;verticalAlign=middle;resizable=0;points=[];autosize=1;strokeColor=none;fillColor=none;" parent="1" vertex="1">
          <mxGeometry x="460" y="40" width="50" height="30" as="geometry" />
        </mxCell>
        <mxCell id="5Wl30h0zNwEaTAG-QsXF-1" value="" style="endArrow=none;html=1;rounded=0;exitX=0;exitY=1;exitDx=0;exitDy=0;entryX=1;entryY=0;entryDx=0;entryDy=0;" edge="1" parent="1">
          <mxGeometry width="50" height="50" relative="1" as="geometry">
            <mxPoint x="470" y="220" as="sourcePoint" />
            <mxPoint x="500" y="190" as="targetPoint" />
          </mxGeometry>
        </mxCell>
        <mxCell id="5Wl30h0zNwEaTAG-QsXF-2" value="" style="endArrow=none;html=1;rounded=0;exitX=0;exitY=1;exitDx=0;exitDy=0;entryX=1;entryY=0;entryDx=0;entryDy=0;" edge="1" parent="1">
          <mxGeometry width="50" height="50" relative="1" as="geometry">
            <mxPoint x="470" y="320" as="sourcePoint" />
            <mxPoint x="500" y="290" as="targetPoint" />
          </mxGeometry>
        </mxCell>
        <mxCell id="5Wl30h0zNwEaTAG-QsXF-3" value="" style="endArrow=classic;html=1;rounded=0;fillColor=#008a00;strokeColor=#005700;" edge="1" parent="1">
          <mxGeometry width="50" height="50" relative="1" as="geometry">
            <mxPoint x="454.76" y="200" as="sourcePoint" />
            <mxPoint x="454.76" y="170" as="targetPoint" />
          </mxGeometry>
        </mxCell>
        <mxCell id="5Wl30h0zNwEaTAG-QsXF-4" value="growl()" style="text;html=1;align=center;verticalAlign=middle;resizable=0;points=[];autosize=1;strokeColor=none;fillColor=none;" vertex="1" parent="1">
          <mxGeometry x="425" y="140" width="60" height="30" as="geometry" />
        </mxCell>
        <mxCell id="5Wl30h0zNwEaTAG-QsXF-5" value="" style="endArrow=classic;html=1;rounded=0;fillColor=#008a00;strokeColor=#005700;" edge="1" parent="1">
          <mxGeometry width="50" height="50" relative="1" as="geometry">
            <mxPoint x="454.76" y="300" as="sourcePoint" />
            <mxPoint x="454.76" y="270" as="targetPoint" />
          </mxGeometry>
        </mxCell>
        <mxCell id="5Wl30h0zNwEaTAG-QsXF-6" value="growl()" style="text;html=1;align=center;verticalAlign=middle;resizable=0;points=[];autosize=1;strokeColor=none;fillColor=none;" vertex="1" parent="1">
          <mxGeometry x="425" y="240" width="60" height="30" as="geometry" />
        </mxCell>
        <mxCell id="5Wl30h0zNwEaTAG-QsXF-9" value="" style="rounded=0;whiteSpace=wrap;html=1;" vertex="1" parent="1">
          <mxGeometry x="500" y="190" width="30" height="30" as="geometry" />
        </mxCell>
        <mxCell id="5Wl30h0zNwEaTAG-QsXF-10" value="" style="endArrow=classic;html=1;rounded=0;fillColor=#008a00;strokeColor=#005700;" edge="1" parent="1">
          <mxGeometry width="50" height="50" relative="1" as="geometry">
            <mxPoint x="514.76" y="200" as="sourcePoint" />
            <mxPoint x="514.76" y="170" as="targetPoint" />
          </mxGeometry>
        </mxCell>
        <mxCell id="5Wl30h0zNwEaTAG-QsXF-11" value="huntSalmon()" style="text;html=1;align=center;verticalAlign=middle;resizable=0;points=[];autosize=1;strokeColor=none;fillColor=none;" vertex="1" parent="1">
          <mxGeometry x="465" y="140" width="100" height="30" as="geometry" />
        </mxCell>
        <mxCell id="5Wl30h0zNwEaTAG-QsXF-12" value="" style="rounded=0;whiteSpace=wrap;html=1;" vertex="1" parent="1">
          <mxGeometry x="530" y="190" width="30" height="30" as="geometry" />
        </mxCell>
        <mxCell id="5Wl30h0zNwEaTAG-QsXF-13" value="" style="endArrow=classic;html=1;rounded=0;fillColor=#008a00;strokeColor=#005700;" edge="1" parent="1">
          <mxGeometry width="50" height="50" relative="1" as="geometry">
            <mxPoint x="544.76" y="210" as="sourcePoint" />
            <mxPoint x="544.76" y="240" as="targetPoint" />
          </mxGeometry>
        </mxCell>
        <mxCell id="5Wl30h0zNwEaTAG-QsXF-14" value="scratch()" style="text;html=1;align=center;verticalAlign=middle;resizable=0;points=[];autosize=1;strokeColor=none;fillColor=none;" vertex="1" parent="1">
          <mxGeometry x="510" y="240" width="70" height="30" as="geometry" />
        </mxCell>
        <mxCell id="5Wl30h0zNwEaTAG-QsXF-15" value="" style="rounded=0;whiteSpace=wrap;html=1;" vertex="1" parent="1">
          <mxGeometry x="500" y="290" width="30" height="30" as="geometry" />
        </mxCell>
        <mxCell id="5Wl30h0zNwEaTAG-QsXF-17" value="" style="endArrow=classic;html=1;rounded=0;fillColor=#008a00;strokeColor=#005700;" edge="1" parent="1">
          <mxGeometry width="50" height="50" relative="1" as="geometry">
            <mxPoint x="514.76" y="310" as="sourcePoint" />
            <mxPoint x="514.76" y="340" as="targetPoint" />
          </mxGeometry>
        </mxCell>
        <mxCell id="5Wl30h0zNwEaTAG-QsXF-18" value="wagTail()" style="text;html=1;align=center;verticalAlign=middle;resizable=0;points=[];autosize=1;strokeColor=none;fillColor=none;" vertex="1" parent="1">
          <mxGeometry x="480" y="340" width="70" height="30" as="geometry" />
        </mxCell>
        <mxCell id="5Wl30h0zNwEaTAG-QsXF-19" value="$$\texttt{Animal}$$" style="text;html=1;align=center;verticalAlign=middle;resizable=0;points=[];autosize=1;strokeColor=none;fillColor=none;" vertex="1" parent="1">
          <mxGeometry x="40" y="90" width="120" height="30" as="geometry" />
        </mxCell>
        <mxCell id="5Wl30h0zNwEaTAG-QsXF-20" value="$$\texttt{Bear}$$" style="text;html=1;align=center;verticalAlign=middle;resizable=0;points=[];autosize=1;strokeColor=none;fillColor=none;" vertex="1" parent="1">
          <mxGeometry x="45" y="190" width="110" height="30" as="geometry" />
        </mxCell>
        <mxCell id="5Wl30h0zNwEaTAG-QsXF-21" value="$$\texttt{Dog}$$" style="text;html=1;align=center;verticalAlign=middle;resizable=0;points=[];autosize=1;strokeColor=none;fillColor=none;" vertex="1" parent="1">
          <mxGeometry x="50" y="290" width="110" height="30" as="geometry" />
        </mxCell>
      </root>
    </mxGraphModel>
  </diagram>
</mxfile>
